<svg width="467" height="515" viewBox="0 0 467 515" fill="none" xmlns="http://www.w3.org/2000/svg">
<path d="M51.3678 235.49C51.3678 235.827 51.3487 236.154 51.3391 236.49C50.1402 277.385 54.3314 309.26 61.4093 334.096L82.4225 347.202L65.1401 344.519L64.651 344.442C74.0307 371.74 86.9973 389.375 99.2446 400.711C106.86 407.788 114.206 412.413 120.239 415.413C120.632 415.615 121.025 415.808 121.418 415.99C122.387 416.462 123.327 416.875 124.228 417.26L135.785 417.865C135.948 417.327 136.092 416.798 136.236 416.25C136.332 415.913 136.428 415.577 136.504 415.231C136.629 414.788 136.744 414.337 136.859 413.894C150.526 361.106 133.301 319.01 110.811 288.99C110.753 288.885 110.677 288.798 110.59 288.692C102.764 278.279 94.2958 269.317 86.2876 261.885L81.1757 274.933L80.4373 256.654C66.4924 244.577 54.8876 237.529 52.0392 235.865C51.598 235.606 51.3678 235.481 51.3678 235.481V235.49Z" fill="#028051"/>
<path d="M50.9553 235.683L51.3389 236.49L75.0855 286.327L75.5075 287.212L81.9812 300.798L82.2018 301.25L102.841 344.577L102.87 344.635L136.504 415.231L137.013 416.288L137.809 417.971L138.816 418.019L138.029 416.346L136.859 413.894L103.666 344.221L103.052 342.933L52.0391 235.875L51.7609 235.288L50.9553 235.683Z" fill="white"/>
<path d="M52.9095 280.733L52.4692 281.374L81.9044 301.672L82.3446 301.03L52.9095 280.733Z" fill="white"/>
<path d="M52.7073 270.895L52.2671 271.537L75.3411 287.448L75.7813 286.806L52.7073 270.895Z" fill="white"/>
<path d="M110.075 288.643L102.83 344.645L103.6 344.745L110.845 288.743L110.075 288.643Z" fill="white"/>
<path d="M140.427 426.913C140.427 426.913 113.027 439.894 74.0404 416.587L86.6809 410.567L66.0417 411.394C50.8213 400.721 34.1239 384.452 16.7839 359.981L21.608 357.692L15.3549 357.942C12.4297 353.76 9.49495 349.337 6.54102 344.664C6.54102 344.664 17.9923 343.644 34.354 345.538L42.7555 356.942L40.377 346.346C73.839 351.433 122.56 369.019 140.427 426.904V426.913Z" fill="#07A369"/>
<path d="M6.74466 344.326L6.3042 345.082L142.266 424.767L142.706 424.012L6.74466 344.326Z" fill="white"/>
<path d="M41.9073 365.324L22.4456 367.337L22.5292 368.15L41.991 366.137L41.9073 365.324Z" fill="white"/>
<path d="M51.1572 370.624L28.4585 374.678L28.6015 375.483L51.3002 371.429L51.1572 370.624Z" fill="white"/>
<path d="M108.394 376.808L109.075 376.038C97.6622 365.865 83.7653 357.942 67.7776 352.471L67.4419 353.452C83.3049 358.875 97.0772 366.74 108.385 376.817L108.394 376.808Z" fill="#0C2B34"/>
<path d="M134.395 124.683V476.846C134.395 481.76 138.365 485.75 143.276 485.75H315.937C320.838 485.75 324.818 481.76 324.818 476.846V124.683C324.818 119.76 320.838 115.779 315.937 115.779H143.276C138.365 115.779 134.395 119.76 134.395 124.683Z" fill="#046A44"/>
<path d="M126.214 124.683V476.846C126.214 481.76 130.184 485.75 135.095 485.75H307.756C312.657 485.75 316.637 481.76 316.637 476.846V124.683C316.637 119.76 312.657 115.779 307.756 115.779H135.095C130.184 115.779 126.214 119.76 126.214 124.683Z" fill="#00AB6C"/>
<path d="M139.938 159.644V438.779C139.938 444.462 144.244 449.067 149.548 449.067H294.598C299.901 449.067 304.208 444.462 304.208 438.779V159.644C304.208 153.962 299.901 149.356 294.598 149.356H149.548C144.244 149.356 139.938 153.962 139.938 159.644Z" fill="#D2EBE2"/>
<path d="M135.785 438.779V159.644C135.785 152.837 141.127 147.288 147.697 147.288H296.458C303.028 147.288 308.37 152.827 308.37 159.644V438.779C308.37 445.587 303.028 451.135 296.458 451.135H147.697C141.127 451.135 135.785 445.596 135.785 438.779ZM147.697 151.413C143.4 151.413 139.9 155.106 139.9 159.644V438.779C139.9 443.317 143.4 447.01 147.697 447.01H296.458C300.755 447.01 304.255 443.317 304.255 438.779V159.644C304.255 155.106 300.755 151.413 296.458 151.413H147.697Z" fill="white"/>
<path d="M307.756 486.481H167.022V485.038H307.756C312.254 485.038 315.918 481.365 315.918 476.856V124.683C315.918 120.173 312.254 116.5 307.756 116.5H135.095V115.058H307.756C313.05 115.058 317.356 119.375 317.356 124.683V476.846C317.356 482.154 313.05 486.471 307.756 486.471V486.481Z" fill="#0C2B34"/>
<path d="M126.933 137.183H125.494V220.885H126.933V137.183Z" fill="#0C2B34"/>
<path d="M340.24 317.423C352.314 315.577 396.201 298.75 396.201 298.75C396.201 298.75 392.979 292.462 381.355 294.125C369.741 295.789 340.048 303.365 340.048 303.365L340.23 317.414L340.24 317.423Z" fill="#FCB47E"/>
<path d="M346.148 214.913C320.694 214.058 299.374 234.048 298.52 259.577C297.667 285.096 317.606 306.481 343.069 307.327C368.523 308.183 389.853 288.192 390.697 262.663C391.55 237.144 371.611 215.769 346.148 214.913ZM381.71 262.365C381.374 272.298 377.202 281.51 369.961 288.298C362.72 295.087 353.283 298.654 343.366 298.317C322.919 297.625 306.826 280.385 307.516 259.875C307.852 249.942 312.014 240.731 319.255 233.942C326.237 227.394 335.281 223.846 344.815 223.904C345.16 223.904 345.496 223.913 345.85 223.933C365.972 224.606 381.854 241.298 381.72 261.346C381.72 261.683 381.72 262.019 381.7 262.365H381.71Z" fill="#FCC659"/>
<path d="M381.72 261.356C381.72 261.692 381.72 262.029 381.7 262.375C381.365 272.308 377.193 281.519 369.952 288.308C362.711 295.096 353.274 298.663 343.357 298.327C322.909 297.635 306.816 280.394 307.507 259.885C307.842 249.952 312.005 240.74 319.246 233.952C326.228 227.404 335.272 223.856 344.805 223.913C345.15 223.913 345.486 223.923 345.841 223.942C365.962 224.615 381.844 241.308 381.72 261.356Z" fill="#F49B51"/>
<path d="M342.081 289.567L342.129 282.567C338.12 282.471 333.977 281.202 331.57 279.452L333.258 274.817C335.732 276.5 339.319 277.837 343.194 277.865C348.104 277.894 351.442 275.077 351.461 271.125C351.48 267.308 348.804 264.933 343.702 262.827C336.662 260.01 332.327 256.788 332.366 250.76C332.404 245.01 336.509 240.663 342.877 239.663L342.925 232.663L347.212 232.692L347.174 239.413C351.327 239.577 354.146 240.702 356.151 241.894L354.396 246.462C352.947 245.625 350.128 244.077 345.697 244.048C340.374 244.019 338.35 247.192 338.331 249.962C338.312 253.567 340.854 255.385 346.857 257.923C353.964 260.885 357.532 264.51 357.493 270.673C357.455 276.154 353.628 281.26 346.493 282.394L346.445 289.606L342.091 289.577L342.081 289.567Z" fill="#FCC659"/>
<path d="M380.252 252.038C380.176 251.731 380.089 251.433 380.003 251.135C377.126 240.913 370 232.471 360.448 227.913L360.879 227C370.69 231.683 378.008 240.356 380.952 250.798C381.058 251.173 381.144 251.481 381.221 251.788L380.243 252.038H380.252Z" fill="#0C2B34"/>
<path d="M360.457 227.904C352.775 224.24 344.009 223.375 335.771 225.461L335.521 224.481C343.99 222.327 352.996 223.221 360.889 226.981L360.457 227.894V227.904Z" fill="#0C2B34"/>
<path d="M377.078 280.356L376.215 279.837C378.708 275.644 380.329 271.106 381.02 266.337L382.017 266.481C381.307 271.375 379.648 276.038 377.078 280.346V280.356Z" fill="#0C2B34"/>
<path d="M374.833 226.933C371.285 223.779 367.305 221.212 362.979 219.298L363.411 218.308C367.832 220.26 371.908 222.894 375.543 226.115L374.824 226.923L374.833 226.933Z" fill="#0C2B34"/>
<path d="M370.393 300.115L369.798 299.211C382.055 291.048 389.67 277.385 390.159 262.654C390.466 253.5 388.069 244.587 383.235 236.856L384.146 236.279C389.095 244.183 391.55 253.317 391.234 262.683C390.735 277.76 382.938 291.75 370.393 300.106V300.115Z" fill="#0C2B34"/>
<path d="M356.745 293.385C356.745 293.385 355.652 280.538 337.199 279.702C322.909 279.058 318.21 271.202 306.404 270.087C295.02 269.019 283.357 274.712 283.357 274.712C283.357 274.712 277.603 277.029 271.868 277.596C260.704 278.692 252.197 273.606 252.197 273.606L252.379 313.163C252.379 313.163 282.436 310.577 288.699 312.058C294.972 313.538 324.29 326.288 336.365 324.442C348.44 322.596 392.327 305.769 392.327 305.769C392.327 305.769 389.651 298.375 378.037 300.038C366.422 301.702 356.093 305.404 352.592 305.587C349.092 305.769 345.956 304.481 345.956 304.481L318.114 292.837C331.838 294.26 344.853 294.635 356.745 293.394V293.385Z" fill="#FFC49C"/>
<path d="M200.896 292.731C200.896 302.914 201.309 312.702 202.076 321.808C202.076 321.875 202.076 321.942 202.095 322.019C205.04 356.99 213.096 382.106 222.591 382.106C232.085 382.106 240.698 355.269 243.383 318.433V318.048L243.863 275.202V274.856C241.849 234.058 233.092 203.346 222.591 203.346C212.089 203.346 203.822 232.414 201.51 271.558C201.51 271.615 201.51 271.683 201.51 271.74C201.117 278.471 200.906 285.5 200.906 292.721L200.896 292.731Z" fill="#0C2B34"/>
<path d="M247.181 328.24C243.009 365.875 232.517 390.827 220.653 390.827C210.535 390.827 201.424 373.125 196.283 343.481L197.597 343.298C202.556 371.885 211.379 389.644 220.653 389.644C231.596 389.644 241.743 364.702 245.829 328.385L247.181 328.231V328.24Z" fill="#0C2B34"/>
<path d="M192.783 312.058C192.428 305.769 192.236 299.269 192.236 292.731C192.236 285.115 192.495 277.394 193.013 269.808C193.013 269.798 193.013 269.75 193.013 269.702V269.606C193.742 259.106 194.95 249.163 196.619 240.048L197.923 240.231C196.264 249.308 195.065 259.212 194.336 269.673C194.336 269.683 194.336 269.731 194.336 269.779V269.875C193.819 277.442 193.56 285.135 193.56 292.731C193.56 299.25 193.742 305.731 194.097 312L192.773 312.058H192.783Z" fill="#0C2B34"/>
<path d="M247.354 258.971L246.04 259.01C242.108 221.856 231.846 195.808 220.653 195.808C213.671 195.808 206.737 206.067 201.664 223.971L200.379 223.692C205.702 204.952 212.895 194.635 220.653 194.635C227.261 194.635 233.419 202 238.454 215.923C242.491 227.115 245.589 242.154 247.354 258.971Z" fill="#0C2B34"/>
<path d="M375.907 126.635C379.408 128.413 381.815 131.154 383.455 134.577C385.105 131.154 387.522 128.404 391.013 126.615C387.512 124.837 385.095 122.096 383.455 118.673C381.806 122.096 379.398 124.846 375.907 126.635Z" fill="#FFE6A6"/>
<path d="M387.915 147.452C389.948 148.49 391.348 150.077 392.308 152.067C393.267 150.077 394.667 148.481 396.7 147.442C394.667 146.404 393.267 144.817 392.308 142.827C391.348 144.817 389.948 146.413 387.915 147.452Z" fill="#FFE6A6"/>
<path d="M252.235 281.808L252.379 313.173C252.379 313.173 257.328 312.75 263.62 312.346C263.293 305.106 262.056 286.885 257.606 278.337C256.494 276.202 254.585 277.827 252.235 281.808Z" fill="#FFA87D"/>
<path d="M342.004 294.606C335.08 294.606 327.398 294.154 318.229 293.202L318.325 292.25C329.488 293.404 338.437 293.827 346.483 293.577L346.512 294.538C345.045 294.587 343.539 294.606 342.004 294.606Z" fill="#0C2B34"/>
<path d="M351.892 306.087C348.632 306.087 345.898 304.971 345.773 304.923L334.437 300.183L334.802 299.298L346.138 304.039C346.138 304.039 349.226 305.279 352.564 305.115C353.993 305.038 356.697 304.337 360.131 303.433C364.811 302.212 371.227 300.538 377.969 299.567C389.833 297.875 392.749 305.529 392.778 305.606L391.876 305.933C391.77 305.644 389.162 298.923 378.104 300.51C371.419 301.471 365.032 303.135 360.371 304.356C356.889 305.269 354.137 305.981 352.612 306.067C352.362 306.077 352.123 306.087 351.883 306.087H351.892Z" fill="#0C2B34"/>
<path d="M275.013 279.798L274.486 278.99C281.41 274.423 291.835 271.452 291.941 271.423L292.2 272.346C292.094 272.375 281.804 275.308 275.013 279.788V279.798Z" fill="#0C2B34"/>
<path d="M258.441 310.462C258.105 313.442 257.664 316.442 257.127 319.462L247.699 320.433L244.755 320.731L243.105 320.904L202.901 325.058C202.891 324.981 202.891 324.913 202.882 324.837C202.057 313.702 201.625 301.76 201.625 289.327C201.625 281 201.827 272.894 202.201 265.096C202.22 264.644 202.249 264.192 202.268 263.75C202.268 263.683 202.268 263.615 202.268 263.548H202.316L243.594 267.375L245.042 267.51L248.207 267.798L257.117 268.615C259.63 282.163 260.119 296.106 258.431 310.462H258.441Z" fill="#00AB6C"/>
<path d="M258.441 310.462C258.086 313.442 257.625 316.442 257.069 319.462L247.267 320.433L244.755 320.683L242.501 320.904L202.882 324.837L202.68 324.856C202.584 323.798 202.488 322.731 202.392 321.654C202.392 321.587 202.392 321.519 202.373 321.442C201.577 312.288 201.155 302.442 201.155 292.212C201.155 284.952 201.385 277.885 201.788 271.115C201.788 271.058 201.788 271 201.788 270.933C201.903 268.962 202.047 267.019 202.191 265.096C202.21 264.644 202.239 264.192 202.258 263.75H202.297L206.612 264.135C207.428 273.288 210.295 297.308 218.332 303.894C223.914 308.462 235.701 309.875 245.042 310.24C252.437 310.529 258.297 310.154 258.297 310.154L258.431 310.462H258.441Z" fill="#04915D"/>
<path d="M187.776 57.0096L186.894 56.4807C197.29 39.0961 214.036 27.298 239.605 19.3557L239.911 20.3365C214.602 28.1923 198.038 39.8461 187.786 57.0096H187.776Z" fill="#0C2B34"/>
<path d="M171.52 65.2596L170.552 64.9038C183.969 27.9231 218.419 16.0577 250.346 9.3269L250.557 10.3365C218.908 17.0096 184.765 28.75 171.52 65.2596Z" fill="#0C2B34"/>
<path d="M190.865 491.173C190.865 493.837 210.353 496 234.378 496C258.402 496 277.891 493.837 277.891 491.173C277.891 491.125 277.881 491.077 277.871 491.029V477.99H190.893V491C190.874 491.058 190.865 491.115 190.865 491.173Z" fill="#F49B51"/>
<path d="M190.865 478.106C190.865 480.769 210.343 482.933 234.378 482.933C258.412 482.933 277.891 480.769 277.891 478.106C277.891 475.442 258.412 473.279 234.378 473.279C210.343 473.279 190.865 475.442 190.865 478.106Z" fill="#FCC659"/>
<path d="M180.574 475.442C180.574 478.106 200.062 480.269 224.087 480.269C248.111 480.269 267.6 478.106 267.6 475.442C267.6 475.394 267.59 475.346 267.581 475.298V462.26H180.603V475.269C180.583 475.327 180.574 475.385 180.574 475.442Z" fill="#F49B51"/>
<path d="M224.096 467.202C248.128 467.202 267.609 465.041 267.609 462.375C267.609 459.709 248.128 457.548 224.096 457.548C200.065 457.548 180.583 459.709 180.583 462.375C180.583 465.041 200.065 467.202 224.096 467.202Z" fill="#FCC659"/>
<path d="M190.865 459.702C190.865 462.365 210.353 464.529 234.378 464.529C258.402 464.529 277.891 462.365 277.891 459.702C277.891 459.654 277.881 459.606 277.871 459.558V446.519H190.893V459.529C190.874 459.587 190.865 459.644 190.865 459.702Z" fill="#F49B51"/>
<path d="M234.378 451.471C258.409 451.471 277.891 449.31 277.891 446.644C277.891 443.978 258.409 441.817 234.378 441.817C210.346 441.817 190.865 443.978 190.865 446.644C190.865 449.31 210.346 451.471 234.378 451.471Z" fill="#FCC659"/>
<path d="M234.368 496.51C252.063 496.51 278.399 495.087 278.399 491.173H277.373C277.373 492.673 262.603 495.481 234.368 495.481C233.342 495.481 232.325 495.481 231.318 495.471V496.5C232.316 496.5 233.342 496.51 234.368 496.51Z" fill="#0C2B34"/>
<path d="M217.114 496.116L217.162 495.087C212.76 494.875 208.713 494.587 205.155 494.221L205.049 495.25C208.627 495.616 212.684 495.904 217.114 496.116Z" fill="#0C2B34"/>
<path d="M251.545 479.615C267.897 478.125 267.897 476.058 267.897 475.375H266.871C266.871 475.875 264.099 477.433 251.459 478.587L251.555 479.615H251.545Z" fill="#0C2B34"/>
<path d="M223.866 480.721C228.757 480.721 233.562 480.635 238.147 480.452L238.108 479.423C229.927 479.741 220.874 479.779 212.444 479.519L212.415 480.548C216.146 480.664 220.001 480.721 223.876 480.721H223.866Z" fill="#0C2B34"/>
<path d="M201.606 480.039L201.673 479.01C197.031 478.702 192.984 478.308 189.647 477.837L189.503 478.856C192.869 479.337 196.945 479.731 201.606 480.039Z" fill="#0C2B34"/>
<path d="M263.629 450.75C278.13 449.269 278.13 447.394 278.13 446.692H277.104C277.104 446.692 276.73 448.375 263.524 449.731L263.629 450.76V450.75Z" fill="#0C2B34"/>
<path d="M234.109 452.029C239.115 452.029 244.007 451.933 248.649 451.75L248.61 450.721C243.978 450.904 239.096 451 234.109 451C225.18 451 216.606 450.702 209.307 450.135L209.231 451.164C216.548 451.731 225.151 452.029 234.109 452.029Z" fill="#0C2B34"/>
<path d="M175.433 443.971C175.433 446.635 194.921 448.798 218.946 448.798C242.971 448.798 262.459 446.635 262.459 443.971C262.459 443.923 262.45 443.875 262.44 443.827V430.789H175.462V443.798C175.443 443.856 175.433 443.914 175.433 443.971Z" fill="#F49B51"/>
<path d="M218.955 435.731C242.987 435.731 262.468 433.57 262.468 430.904C262.468 428.238 242.987 426.077 218.955 426.077C194.924 426.077 175.442 428.238 175.442 430.904C175.442 433.57 194.924 435.731 218.955 435.731Z" fill="#FCC659"/>
<path d="M183.509 430.904C183.509 432.692 199.381 434.144 218.946 434.144C238.511 434.144 254.384 432.692 254.384 430.904C254.384 429.116 238.511 427.664 218.946 427.664C199.381 427.664 183.509 429.116 183.509 430.904Z" fill="#F49B51"/>
<path d="M118.973 413.827C94.7083 413.164 74.5103 432.346 73.8389 456.683C73.1772 481.01 92.3106 501.269 116.585 501.933C140.849 502.596 161.057 483.414 161.719 459.077C162.38 434.75 143.247 414.5 118.973 413.827ZM153.144 458.846C152.885 468.317 148.963 477.115 142.096 483.635C135.239 490.154 126.262 493.606 116.815 493.346C97.317 492.808 81.8855 476.481 82.4226 456.923C82.6816 447.452 86.5946 438.654 93.4615 432.135C100.079 425.846 108.672 422.414 117.764 422.414C118.1 422.414 118.417 422.414 118.752 422.433C137.934 422.952 153.164 438.769 153.164 457.875C153.164 458.202 153.164 458.519 153.164 458.846H153.144Z" fill="#FCC659"/>
<path d="M153.163 457.875C153.163 458.202 153.163 458.519 153.163 458.846C152.905 468.317 148.982 477.116 142.115 483.635C135.258 490.154 126.281 493.606 116.834 493.346C97.336 492.808 81.9046 476.481 82.4321 456.923C82.691 447.452 86.604 438.654 93.471 432.135C100.089 425.846 108.682 422.414 117.774 422.414C118.109 422.414 118.426 422.414 118.762 422.433C137.943 422.952 153.183 438.769 153.183 457.875H153.163Z" fill="#F49B51"/>
<path d="M115.549 485.01V478.337C111.722 478.269 107.771 477.077 105.469 475.433L107.051 471.01C109.42 472.596 112.854 473.846 116.546 473.846C121.227 473.846 124.391 471.135 124.391 467.375C124.391 463.615 121.821 461.49 116.939 459.51C110.216 456.865 106.064 453.827 106.064 448.077C106.064 442.327 109.948 438.433 116.019 437.442V430.769H120.104V437.183C124.056 437.317 126.76 438.375 128.669 439.49L127.019 443.856C125.638 443.067 122.934 441.606 118.714 441.606C113.64 441.606 111.732 444.644 111.732 447.289C111.732 450.721 114.168 452.442 119.903 454.817C126.693 457.596 130.117 461.029 130.117 466.914C130.117 472.135 126.492 477.019 119.702 478.144V485.019H115.549V485.01Z" fill="#FCC659"/>
<path d="M151.706 449C151.629 448.712 151.552 448.423 151.466 448.135C148.656 438.414 141.827 430.404 132.688 426.115L133.09 425.24C142.47 429.644 149.5 437.865 152.368 447.798C152.473 448.154 152.55 448.442 152.627 448.74L151.696 448.981L151.706 449Z" fill="#0C2B34"/>
<path d="M132.697 426.125C125.351 422.673 116.997 421.904 109.152 423.952L108.912 423.019C116.968 420.914 125.562 421.712 133.109 425.25L132.707 426.125H132.697Z" fill="#0C2B34"/>
<path d="M148.848 476.01L148.023 475.519C150.373 471.51 151.888 467.173 152.521 462.625L153.47 462.76C152.818 467.433 151.265 471.885 148.848 476.01Z" fill="#0C2B34"/>
<path d="M146.393 425.106C142.997 422.125 139.18 419.702 135.056 417.904L135.469 416.962C139.698 418.798 143.602 421.279 147.074 424.337L146.393 425.115V425.106Z" fill="#0C2B34"/>
<path d="M142.595 494.885L142.019 494.029C153.653 486.173 160.827 473.106 161.21 459.067C161.45 450.346 159.11 441.856 154.449 434.529L155.312 433.971C160.079 441.481 162.467 450.164 162.227 459.096C161.834 473.471 154.497 486.846 142.585 494.894L142.595 494.885Z" fill="#0C2B34"/>
<path d="M249.502 131.923H201.52C201.05 131.923 200.666 131.538 200.666 131.067C200.666 130.596 201.05 130.212 201.52 130.212H249.502C249.972 130.212 250.356 130.596 250.356 131.067C250.356 131.538 249.972 131.923 249.502 131.923Z" fill="#0C2B34"/>
<path d="M91.5049 432.923C95.0055 434.702 97.4127 437.442 99.0528 440.865C100.702 437.442 103.119 434.692 106.61 432.904C103.11 431.125 100.693 428.385 99.0528 424.962C97.4032 428.385 94.9959 431.135 91.5049 432.923Z" fill="#FFE6A6"/>
<path d="M134.855 480.096C136.888 481.135 138.288 482.721 139.248 484.712C140.207 482.721 141.607 481.125 143.64 480.087C141.607 479.048 140.207 477.462 139.248 475.471C138.288 477.462 136.888 479.058 134.855 480.096Z" fill="#FFE6A6"/>
<path d="M88.4934 471.914C90.5266 472.952 91.9269 474.539 92.886 476.529C93.845 474.539 95.2453 472.942 97.2785 471.904C95.2453 470.865 93.845 469.279 92.886 467.289C91.9269 469.279 90.5266 470.875 88.4934 471.914Z" fill="#FFE6A6"/>
</svg>
