<svg width="319" height="319" viewBox="0 0 319 319" fill="none" xmlns="http://www.w3.org/2000/svg">
<path d="M161.848 309.443C243.239 309.443 309.219 271.349 309.219 224.359C309.219 177.369 243.239 139.275 161.848 139.275C80.4567 139.275 14.4762 177.369 14.4762 224.359C14.4762 271.349 80.4567 309.443 161.848 309.443Z" fill="#FAFAFA"/>
<path d="M83.5269 188.089C114.738 170.065 165.344 170.065 196.561 188.089C223.019 203.363 227.039 226.681 208.639 244.411L277.319 283.559C281.505 285.977 281.505 289.894 277.319 292.312L271.15 295.879C266.965 298.297 260.291 298.112 256.246 295.464L196.255 253.522C165.019 271.373 114.642 271.316 83.5269 253.356C52.316 235.333 52.316 206.119 83.5269 188.095V188.089Z" fill="#E6E6E6"/>
<path d="M96.1785 29.6671L90.7619 32.7933C90.7874 32.5508 90.8065 32.3084 90.8065 32.0787V30.5092C90.8065 27.7148 88.8479 26.5855 86.4299 27.9828C85.4537 28.5506 84.5478 29.4438 83.8204 30.4901C83.4249 26.9811 80.6687 25.6732 77.3256 27.6C73.7081 29.6862 70.7733 34.7647 70.7733 38.9436V41.2914C70.7733 42.376 70.9711 43.282 71.3284 44.0093L66.8305 46.606C65.4907 47.378 64.3997 49.2664 64.3997 50.8104C64.3997 52.3544 65.4843 52.986 66.8305 52.214L96.1785 35.2687C97.5183 34.4967 98.6093 32.6083 98.6093 31.0643C98.6093 29.5203 97.5247 28.8887 96.1785 29.6607V29.6671Z" fill="#EBEBEB"/>
<path d="M24.8182 43.7413L27.8742 41.3935V34.6689C27.8742 29.3353 32.1297 23.1467 36.7424 20.4862C41.3615 17.8194 45.1002 19.9822 45.1002 25.3159V26.292C46.1465 24.6651 47.4991 23.2615 48.9792 22.413C52.3032 20.4926 54.9956 22.0493 54.9956 25.8837V26.3303L59.251 23.874C61.4394 22.6107 63.213 23.6315 63.213 26.158C63.213 28.6845 61.4394 31.7597 59.251 33.0229L24.8182 52.903C22.6298 54.1662 20.8562 53.1454 20.8562 50.6189C20.8562 48.0925 22.6298 45.0173 24.8182 43.7541V43.7413Z" fill="#EBEBEB"/>
<path d="M91.2161 247.915L91.216 247.915C77.3795 239.929 70.5715 229.528 70.5715 219.23V199.822C70.5715 189.517 77.3796 179.116 91.216 171.13L91.2161 171.13C105.05 163.142 123.214 159.134 141.406 159.134C159.598 159.134 177.763 163.142 191.597 171.13L191.597 171.13C205.433 179.116 212.241 189.517 212.241 199.815V219.23C212.241 229.528 205.433 239.929 191.597 247.915L191.597 247.915C177.763 255.903 159.598 259.911 141.406 259.911C123.214 259.911 105.05 255.903 91.2161 247.915ZM188.645 223.395C199.958 216.863 206.338 208.512 206.338 199.815C206.338 191.118 199.958 182.768 188.645 176.236C176.112 168.998 159.331 165.029 141.406 165.029C123.482 165.029 106.701 168.998 94.1676 176.236C82.8549 182.768 76.4747 191.118 76.4747 199.815C76.4747 208.512 82.8549 216.863 94.1676 223.395C106.701 230.632 123.482 234.601 141.406 234.601C159.331 234.601 176.112 230.632 188.645 223.395Z" fill="#00AB6C" stroke="#0C2B34"/>
<path opacity="0.6" d="M212.671 221.041C211.561 227.715 208.62 232.742 196.778 241.993C180.024 255.072 137.623 260.412 113.003 252.284C89.7921 244.622 82.3913 229.648 82.3913 219.37L82.4487 213.328C78.8632 209.06 76.9747 204.466 76.9747 199.815C76.9747 195.164 78.9589 190.341 82.7167 185.977L82.7996 177.472H81.4662C73.874 184.248 70.0715 192.032 70.0715 199.815V219.229C70.0715 229.769 77.0385 240.309 90.966 248.348C118.821 264.432 163.992 264.432 191.847 248.348C204.977 240.768 211.918 230.969 212.671 221.041Z" fill="black" fill-opacity="0.33"/>
<path d="M91.2224 171.13C105.056 163.142 123.221 159.134 141.413 159.134C159.605 159.134 177.769 163.142 191.603 171.13C205.439 179.119 212.244 189.52 212.244 199.818C212.244 210.117 205.439 220.518 191.603 228.507C177.769 236.495 159.605 240.503 141.413 240.503C123.221 240.503 105.056 236.495 91.2224 228.507C77.3859 220.518 70.5811 210.117 70.5811 199.818C70.5811 189.52 77.3859 179.119 91.2224 171.13ZM141.413 234.608C159.337 234.608 176.118 230.639 188.651 223.401C199.964 216.869 206.344 208.519 206.344 199.822C206.344 191.125 199.964 182.774 188.651 176.242C176.118 169.005 159.337 165.035 141.413 165.035C123.488 165.035 106.707 169.005 94.1739 176.242C82.8612 182.774 76.481 191.125 76.481 199.822C76.481 208.519 82.8612 216.869 94.1739 223.401C106.707 230.639 123.488 234.608 141.413 234.608Z" fill="#3BBD8D" stroke="#0C2B34"/>
<path d="M205.851 199.815C205.851 203.126 204.9 206.38 203.063 209.526C200.236 204.626 195.254 200.032 188.395 196.089C175.967 188.899 159.27 184.943 141.4 184.943C123.53 184.943 106.852 188.905 94.424 196.089C87.5655 200.032 82.5891 204.632 79.7436 209.526C77.9253 206.38 76.9683 203.126 76.9683 199.815C76.9683 191.387 83.1633 183.163 94.424 176.662C106.852 169.485 123.549 165.529 141.4 165.529C159.251 165.529 175.96 169.491 188.395 176.662C199.656 183.163 205.851 191.381 205.851 199.815Z" fill="#00AB6C"/>
<path opacity="0.6" d="M94.424 176.662C83.1633 183.163 76.9683 191.381 76.9683 199.815C76.9683 203.126 77.9189 206.38 79.7436 209.526C82.5891 204.626 87.5655 200.032 94.424 196.089C97.2184 194.475 100.243 193.027 103.433 191.745C100.715 192.797 92.3696 195.483 95.4129 187.527C99.0304 178.072 116.677 167.845 129.654 166.142V166.122C116.314 167.469 104.083 171.086 94.424 176.662Z" fill="black" fill-opacity="0.24"/>
<path opacity="0.4" d="M188.401 185.46C175.96 178.276 159.27 174.321 141.413 174.321C123.555 174.321 106.865 178.276 94.424 185.46C85.1411 190.819 79.3162 197.353 77.5553 204.211C79.3162 211.07 85.1411 217.603 94.424 222.962C106.865 230.146 123.555 234.101 141.413 234.101C159.27 234.101 175.96 230.146 188.401 222.962C197.684 217.603 203.509 211.07 205.27 204.211C203.509 197.353 197.684 190.819 188.401 185.46Z" fill="white"/>
<path d="M89.6517 208.664C93.6392 211.79 98.1626 213.756 102.775 215.338C107.401 216.901 112.154 218.011 116.945 218.834C126.541 220.448 136.302 220.901 146.013 220.493C150.868 220.282 155.729 219.829 160.559 219.172C165.376 218.483 170.167 217.622 174.844 216.359C179.514 215.108 184.101 213.519 188.325 211.242C189.384 210.674 190.405 210.049 191.387 209.372C192.382 208.703 193.314 207.95 194.188 207.139C195.062 206.323 195.866 205.417 196.542 204.415C197.238 203.42 197.767 202.297 198.131 201.085C198.169 202.354 197.908 203.65 197.48 204.887C197.034 206.119 196.396 207.286 195.662 208.384C194.934 209.487 194.08 210.502 193.154 211.446C192.242 212.403 191.247 213.264 190.226 214.094C186.098 217.367 181.383 219.727 176.554 221.603C171.711 223.46 166.703 224.793 161.65 225.756C156.597 226.72 151.487 227.313 146.344 227.568C136.066 228.047 125.673 227.071 115.72 224.308C110.757 222.898 105.895 221.054 101.359 218.56C99.1005 217.303 96.9186 215.899 94.9152 214.266C94.4112 213.864 93.9327 213.424 93.4478 213.003C92.9821 212.556 92.5036 212.129 92.0634 211.657C91.1829 210.719 90.3663 209.73 89.6581 208.677L89.6517 208.664Z" fill="white"/>
<path d="M189.728 241.298C189.716 238.108 191.936 234.223 194.692 232.621C196.064 231.824 197.301 231.741 198.207 232.251H198.22L214.113 241.343C214.113 241.343 214.126 241.343 214.132 241.349C215.031 241.872 215.593 242.982 215.599 244.571C215.612 247.761 213.392 251.646 210.636 253.248C209.258 254.052 208.007 254.128 207.101 253.611L191.209 244.526C190.296 244.009 189.722 242.893 189.716 241.292L189.728 241.298Z" fill="#37474F"/>
<path d="M191.215 244.533C190.303 244.016 189.728 242.899 189.722 241.298C189.722 240.099 190.028 238.797 190.571 237.559L213.417 250.651C212.626 251.736 211.669 252.654 210.636 253.254C209.258 254.058 208.007 254.135 207.101 253.618L191.209 244.533H191.215Z" fill="#263238"/>
<path d="M268.241 267.201C268.234 267.201 268.228 267.194 268.222 267.188L217.654 241.419L217.583 241.381C216.41 240.756 214.821 240.864 213.06 241.891C209.475 243.978 206.584 249.037 206.603 253.184C206.61 255.264 207.35 256.718 208.537 257.395L256.087 288.006C257.943 289.174 260.138 289.85 262.499 289.85C269.159 289.85 274.557 284.452 274.557 277.792C274.557 273.217 272.011 269.242 268.26 267.201H268.241Z" fill="#455A64"/>
<path d="M208.524 257.395L256.074 288.006C257.931 289.174 260.125 289.85 262.486 289.85C268.885 289.85 274.104 284.867 274.499 278.57C273.587 282.526 267.041 285.901 258.926 281.358C250.766 276.796 220.754 257.829 207.088 249.962C206.763 251.053 206.584 252.144 206.591 253.184C206.597 255.264 207.337 256.719 208.524 257.395Z" fill="#37474F"/>
<path d="M208.524 257.395C207.337 256.719 206.603 255.264 206.591 253.184C206.572 249.037 209.468 243.978 213.047 241.892C214.802 240.864 216.397 240.756 217.571 241.387L222.049 243.659C220.844 243.008 219.21 243.123 217.411 244.176C213.736 246.319 210.77 251.506 210.789 255.755C210.795 257.886 211.522 259.411 212.735 260.106" fill="#00AB6C"/>
<path opacity="0.2" d="M212.735 260.106C211.523 259.417 210.795 257.892 210.789 255.755C210.789 254.683 210.967 253.554 211.306 252.431C209.781 251.525 208.358 250.696 207.088 249.962C206.929 250.504 206.801 251.053 206.718 251.595C206.674 251.863 206.642 252.131 206.623 252.399C206.604 252.667 206.591 252.929 206.591 253.184C206.597 255.264 207.337 256.719 208.524 257.395L212.741 260.106H212.735Z" fill="black"/>
<path d="M87.54 286.947L49.26 267.801L34.0118 274.551L87.54 286.947Z" fill="#00AB6C"/>
<path d="M87.54 286.947L53.8217 264.406L59.8571 255.729L87.54 286.947Z" fill="#00AB6C"/>
<path d="M53.8217 264.406L54.4533 270.403L87.54 286.947L53.8217 264.406Z" fill="#04744B"/>
<path d="M48.3604 263.258C48.4498 263.258 48.5391 263.226 48.6093 263.156C48.7688 263.003 48.7815 262.741 48.6475 262.563C48.3987 262.244 48.1563 261.931 47.9075 261.606C47.7735 261.427 47.531 261.408 47.3715 261.554C47.212 261.701 47.1929 261.969 47.3269 262.148C47.5693 262.473 47.8181 262.792 48.067 263.111C48.1435 263.207 48.2456 263.258 48.3541 263.258H48.3604Z" fill="#455A64"/>
<path d="M44.9981 258.907C44.5452 258.243 44.1049 257.573 43.6775 256.897C43.5563 256.706 43.6009 256.444 43.7668 256.31C43.9391 256.176 44.1751 256.221 44.2963 256.412C44.7174 257.082 45.1513 257.746 45.6043 258.403C45.7319 258.588 45.6999 258.849 45.5277 258.99C45.4575 259.047 45.3809 259.073 45.298 259.073C45.1832 259.073 45.0683 259.015 44.9981 258.907ZM41.6231 253.426C41.2276 252.718 40.8511 251.997 40.4875 251.276C40.3854 251.072 40.4492 250.817 40.6342 250.702C40.8129 250.587 41.0489 250.664 41.151 250.861C41.5083 251.576 41.8847 252.278 42.2739 252.98C42.3823 253.177 42.3249 253.439 42.1463 253.56C42.0825 253.605 42.0123 253.624 41.9485 253.624C41.8209 253.624 41.6997 253.554 41.6231 253.426ZM38.7776 247.582C38.4586 246.829 38.1524 246.057 37.8717 245.298C37.7887 245.081 37.8844 244.839 38.0758 244.749C38.2672 244.66 38.4905 244.762 38.5735 244.979C38.8542 245.726 39.1541 246.485 39.4667 247.225C39.556 247.435 39.4731 247.684 39.2817 247.786C39.2306 247.812 39.1732 247.825 39.1222 247.825C38.9818 247.825 38.8414 247.735 38.7776 247.582ZM36.5702 241.406C36.3341 240.609 36.1236 239.805 35.9322 239.014C35.8747 238.791 35.996 238.561 36.2001 238.497C36.4043 238.433 36.6084 238.567 36.6659 238.791C36.8573 239.569 37.0678 240.36 37.2975 241.145C37.3613 241.368 37.2528 241.604 37.055 241.674C37.0168 241.687 36.9785 241.693 36.9402 241.693C36.7807 241.693 36.634 241.579 36.5765 241.4L36.5702 241.406ZM35.1028 234.963C34.9688 234.152 34.8539 233.323 34.7582 232.5C34.7327 232.27 34.8795 232.06 35.0836 232.028C35.2878 232.002 35.4792 232.162 35.5047 232.391C35.6004 233.202 35.7089 234.018 35.8428 234.816C35.8811 235.045 35.7408 235.262 35.5366 235.307C35.5111 235.307 35.4919 235.313 35.4664 235.313C35.2878 235.313 35.1283 235.173 35.0964 234.969L35.1028 234.963ZM34.4456 228.353C34.4201 227.702 34.4137 227.051 34.4073 226.394V225.858C34.4073 225.629 34.5796 225.444 34.7901 225.444C35.0007 225.444 35.1666 225.635 35.1666 225.871V226.394C35.1666 227.039 35.1729 227.683 35.1985 228.321C35.2048 228.551 35.0453 228.748 34.8348 228.761H34.822C34.6179 228.761 34.452 228.583 34.4456 228.359V228.353ZM34.956 222.164C34.7455 222.145 34.5924 221.935 34.6115 221.705C34.6817 220.882 34.771 220.052 34.8795 219.229C34.9114 219 35.1028 218.84 35.3069 218.872C35.5111 218.904 35.6578 219.121 35.6259 219.351C35.5238 220.161 35.4345 220.978 35.3643 221.788C35.3452 222.005 35.1793 222.171 34.9879 222.171C34.9752 222.171 34.9624 222.171 34.9496 222.171L34.956 222.164ZM35.8492 215.644C35.6451 215.593 35.5175 215.37 35.5621 215.14C35.728 214.33 35.9194 213.519 36.1299 212.722C36.1874 212.499 36.3979 212.371 36.6021 212.435C36.8062 212.499 36.9211 212.735 36.8573 212.958C36.6531 213.736 36.4617 214.534 36.3022 215.325C36.2639 215.516 36.1044 215.65 35.9322 215.65C35.9066 215.65 35.8747 215.65 35.8492 215.637V215.644ZM37.5718 209.34C37.374 209.251 37.2847 209.009 37.3613 208.792C37.642 208.026 37.9419 207.254 38.2609 206.501C38.3502 206.291 38.5799 206.201 38.7649 206.297C38.9563 206.399 39.0328 206.648 38.9435 206.859C38.6309 207.599 38.331 208.352 38.0631 209.104C38.0057 209.27 37.8589 209.366 37.7122 209.366C37.6675 209.366 37.6165 209.353 37.5718 209.334V209.34ZM40.1621 203.407C39.9835 203.286 39.926 203.031 40.0345 202.833C40.4173 202.118 40.8256 201.41 41.2467 200.727C41.3679 200.536 41.604 200.485 41.7763 200.619C41.9485 200.753 41.9932 201.015 41.8783 201.206C41.4636 201.876 41.0681 202.571 40.6853 203.267C40.6151 203.401 40.4875 203.471 40.3599 203.471C40.2961 203.471 40.2259 203.452 40.1621 203.413V203.407ZM43.5563 197.997C43.3968 197.85 43.3713 197.582 43.5052 197.403C43.9837 196.765 44.4877 196.134 44.9981 195.528C45.1449 195.355 45.3809 195.349 45.5341 195.509C45.6872 195.668 45.6936 195.936 45.5532 196.102C45.0556 196.695 44.5643 197.308 44.0922 197.939C44.0156 198.041 43.9072 198.092 43.7987 198.092C43.7158 198.092 43.6264 198.061 43.5563 197.997ZM47.6522 193.218C47.5119 193.046 47.5246 192.778 47.6841 192.625C48.2456 192.07 48.8261 191.534 49.4067 191.017C49.5726 190.87 49.8087 190.902 49.9426 191.087C50.0702 191.272 50.0447 191.534 49.8788 191.681C49.3046 192.185 48.7368 192.714 48.1881 193.256C48.118 193.327 48.0286 193.365 47.9393 193.365C47.8372 193.365 47.7288 193.32 47.6586 193.225L47.6522 193.218ZM52.3543 189.18C52.2394 188.982 52.2905 188.727 52.4691 188.599C53.1135 188.14 53.7643 187.712 54.4086 187.323C54.5873 187.215 54.8233 187.285 54.9254 187.489C55.0275 187.693 54.9573 187.948 54.7723 188.063C54.1407 188.446 53.5027 188.867 52.8774 189.307C52.8136 189.352 52.7435 189.371 52.6733 189.371C52.5521 189.371 52.4245 189.301 52.3543 189.18Z" fill="#455A64"/>
<path d="M57.9942 186.424C58.0325 186.424 58.0708 186.417 58.1091 186.404C58.511 186.258 58.8619 186.162 59.149 186.117C59.3532 186.085 59.4999 185.868 59.468 185.639C59.4361 185.409 59.2383 185.243 59.0405 185.282C58.7152 185.333 58.3196 185.441 57.8794 185.601C57.6816 185.671 57.5731 185.907 57.6369 186.13C57.688 186.309 57.8347 186.424 58.0006 186.424H57.9942Z" fill="#455A64"/>
<path d="M237.145 39.6517L197.908 27.6254L228.136 48.3923L237.145 39.6517Z" fill="#00AB6C"/>
<path d="M197.908 27.6253L240.137 34.42L249.145 25.6794L197.908 27.6253Z" fill="#00AB6C"/>
<path d="M240.137 34.4201L240.181 44.8577L237.145 39.6517L197.908 27.6254L240.137 34.4201Z" fill="#036943"/>
<path d="M240.181 44.8577L234.14 42.5609L237.145 39.6516L240.181 44.8577Z" fill="#00AB6C"/>
<path opacity="0.2" d="M237.145 39.6516L234.14 42.5609L235.103 42.9309L237.145 39.6516Z" fill="black"/>
<path d="M248.093 37.8142C248.022 37.8652 247.971 37.9482 247.959 38.0439C247.927 38.2608 248.074 38.4841 248.29 38.5415C248.68 38.6436 249.069 38.7457 249.458 38.8541C249.675 38.9116 249.879 38.784 249.911 38.5734C249.949 38.3565 249.803 38.1332 249.586 38.0758C249.196 37.9673 248.801 37.8652 248.412 37.7568C248.297 37.7249 248.182 37.7568 248.099 37.8142H248.093Z" fill="#455A64"/>
<path d="M253.407 39.2369C254.173 39.4921 254.926 39.7601 255.679 40.0344C255.889 40.111 256.017 40.3471 255.959 40.5576C255.908 40.7681 255.685 40.8702 255.474 40.7937C254.734 40.5193 253.988 40.2514 253.229 40.0025C253.018 39.9324 252.884 39.7027 252.929 39.4921C252.948 39.4028 252.993 39.3326 253.056 39.288C253.146 39.2178 253.273 39.1923 253.401 39.2369H253.407ZM259.411 41.5529C260.157 41.8783 260.891 42.2228 261.618 42.5737C261.822 42.6758 261.925 42.9182 261.848 43.116C261.771 43.3201 261.542 43.3967 261.338 43.301C260.623 42.9501 259.896 42.612 259.162 42.293C258.958 42.2036 258.843 41.9612 258.913 41.757C258.939 41.6869 258.977 41.6294 259.034 41.5848C259.136 41.5082 259.277 41.4891 259.411 41.5465V41.5529ZM265.217 44.4813C265.931 44.8896 266.639 45.3171 267.322 45.7445C267.513 45.8658 267.59 46.121 267.494 46.306C267.392 46.4974 267.156 46.5484 266.965 46.4272C266.288 45.9997 265.593 45.585 264.891 45.1831C264.693 45.0683 264.604 44.8194 264.7 44.628C264.725 44.577 264.757 44.5323 264.802 44.5004C264.917 44.4111 265.076 44.4047 265.223 44.4877L265.217 44.4813ZM270.716 48.0605C271.386 48.5517 272.043 49.0621 272.675 49.5725C272.853 49.7193 272.898 49.9745 272.777 50.1467C272.656 50.319 272.407 50.3381 272.228 50.1914C271.609 49.6874 270.959 49.1897 270.301 48.7049C270.116 48.5709 270.059 48.3157 270.174 48.137C270.193 48.1051 270.225 48.0732 270.257 48.0477C270.384 47.952 270.569 47.952 270.723 48.0605H270.716ZM275.788 52.2968C276.388 52.8646 276.981 53.4516 277.556 54.0513C277.715 54.2172 277.728 54.4724 277.581 54.6255C277.441 54.7722 277.186 54.7595 277.026 54.5936C276.465 54.0066 275.878 53.4261 275.291 52.871C275.125 52.7115 275.099 52.4563 275.24 52.2968C275.252 52.2777 275.271 52.2649 275.291 52.2521C275.431 52.1437 275.648 52.1628 275.795 52.3032L275.788 52.2968ZM280.312 57.1584C280.726 57.6624 281.128 58.1728 281.524 58.6959L281.849 59.1234C281.99 59.3084 281.964 59.5572 281.798 59.6848C281.632 59.8061 281.384 59.7614 281.243 59.57L280.924 59.1489C280.535 58.6385 280.133 58.1345 279.731 57.6369C279.584 57.4582 279.597 57.203 279.757 57.069C279.757 57.069 279.763 57.069 279.769 57.0627C279.929 56.9414 280.171 56.9797 280.318 57.152L280.312 57.1584ZM283.655 62.39C283.833 62.2815 284.082 62.3517 284.204 62.5495C284.644 63.2449 285.078 63.9658 285.492 64.6804C285.607 64.8782 285.55 65.127 285.365 65.2227C285.18 65.3248 284.937 65.2418 284.822 65.0377C284.414 64.3295 283.987 63.6213 283.553 62.9386C283.438 62.7536 283.47 62.5239 283.623 62.4091C283.636 62.4027 283.642 62.3963 283.655 62.39ZM286.896 68.1128C287.087 68.0299 287.33 68.132 287.425 68.3425C287.783 69.089 288.121 69.8482 288.44 70.6074C288.529 70.8179 288.44 71.0476 288.242 71.1178C288.044 71.188 287.808 71.0731 287.719 70.8562C287.413 70.1098 287.075 69.3633 286.724 68.636C286.641 68.4573 286.679 68.2596 286.819 68.1511C286.838 68.132 286.864 68.1192 286.896 68.1064V68.1128ZM289.346 74.1738C289.556 74.1228 289.773 74.2631 289.843 74.4801C290.086 75.2584 290.316 76.0559 290.513 76.847C290.571 77.0703 290.437 77.2745 290.233 77.3128C290.022 77.3511 289.805 77.1979 289.748 76.9746C289.55 76.1963 289.327 75.4179 289.091 74.6523C289.04 74.4864 289.091 74.3206 289.212 74.2312C289.25 74.2057 289.295 74.1802 289.339 74.1674L289.346 74.1738ZM290.883 80.4645C291.1 80.4517 291.298 80.6176 291.336 80.8473C291.464 81.6448 291.566 82.4551 291.649 83.2589C291.674 83.4822 291.515 83.6673 291.298 83.6673C291.081 83.6673 290.89 83.4886 290.864 83.2653C290.788 82.4806 290.686 81.6895 290.564 80.9047C290.539 80.758 290.596 80.624 290.698 80.5474C290.749 80.5092 290.813 80.4836 290.89 80.4773L290.883 80.4645Z" fill="#455A64"/>
<path d="M261.025 153.233C258.314 153.258 256.291 151.363 255.022 148.971C263.163 138.961 268.668 125.626 268.668 113.964C268.668 105.312 265.638 99.2451 260.757 96.4315C259.628 95.7808 255.156 93.2032 254.026 92.5525C249.222 89.7772 242.625 90.16 235.333 94.3708C220.646 102.85 208.735 123.636 208.735 140.792C208.735 149.424 211.752 155.491 216.62 158.305C217.756 158.962 222.228 161.527 223.339 162.177C228.143 164.978 234.765 164.608 242.07 160.385C243.978 159.287 245.834 157.973 247.627 156.493C252.572 160.404 258.594 156.142 260.981 154.1C261.3 153.826 261.338 153.226 261.038 153.233H261.025Z" fill="#E0E0E0"/>
<path d="M230.293 163.568C221.405 163.568 215.88 156.333 215.88 144.684C215.88 127.687 227.722 107.022 242.274 98.6264C246.345 96.2785 250.237 95.0854 253.841 95.0854C262.729 95.0854 268.254 102.32 268.254 113.977C268.254 125.633 263.06 138.438 254.703 148.722L254.53 148.933L254.658 149.175C256.157 152.001 258.333 153.584 260.796 153.654C260.776 153.705 260.745 153.756 260.706 153.794C259.009 155.242 255.641 157.68 252.151 157.68C250.581 157.68 249.146 157.176 247.882 156.174L247.621 155.963L247.359 156.174C245.554 157.667 243.704 158.962 241.86 160.027C237.789 162.375 233.897 163.568 230.293 163.568Z" fill="#FAFAFA"/>
<path d="M253.835 94.6643V95.4937C262.467 95.4937 267.833 102.576 267.833 113.97C267.833 125.365 262.678 138.24 254.377 148.454L254.033 148.882L254.288 149.366C255.666 151.969 257.612 153.571 259.839 153.973C258.065 155.383 255.137 157.265 252.144 157.265C250.671 157.265 249.318 156.786 248.138 155.849L247.614 155.434L247.098 155.861C245.305 157.341 243.474 158.624 241.656 159.67C237.649 161.98 233.827 163.154 230.299 163.154C221.667 163.154 216.301 156.072 216.301 144.677C216.301 127.815 228.047 107.309 242.485 98.9772C246.492 96.6676 250.313 95.4937 253.841 95.4937V94.6643M253.841 94.6643C250.294 94.6643 246.294 95.8191 242.07 98.2626C227.384 106.742 215.472 127.528 215.472 144.684C215.472 156.901 221.514 163.983 230.299 163.983C233.846 163.983 237.847 162.828 242.07 160.385C243.978 159.287 245.834 157.973 247.627 156.493C249.082 157.641 250.632 158.088 252.151 158.088C255.8 158.088 259.296 155.542 260.981 154.1C261.3 153.826 261.338 153.233 261.038 153.233C261.038 153.233 261 153.233 260.981 153.233C258.295 153.233 256.298 151.344 255.034 148.971C263.175 138.961 268.681 125.626 268.681 113.964C268.681 102.301 262.639 94.6643 253.854 94.6643H253.841Z" fill="#0C2B34"/>
<path d="M240.711 132.242C241.317 130.718 242.204 128.918 243.365 126.832C244.22 125.307 244.846 124.076 245.248 123.138C245.649 122.2 245.847 121.282 245.847 120.388C245.847 119.112 245.464 118.328 244.705 118.028C243.946 117.728 242.925 117.945 241.662 118.672C240.45 119.374 239.365 120.331 238.427 121.55C237.483 122.768 236.692 124.165 236.041 125.741L231.352 124.778C232.436 121.945 233.904 119.393 235.754 117.122C237.604 114.851 239.793 112.981 242.325 111.52C245.299 109.804 247.685 109.274 249.477 109.925C251.277 110.576 252.17 112.401 252.17 115.399C252.17 116.816 251.998 118.155 251.647 119.425C251.296 120.695 250.868 121.849 250.364 122.877C249.86 123.91 249.209 125.142 248.406 126.564C247.449 128.255 246.753 129.614 246.313 130.641C245.873 131.668 245.656 132.734 245.656 133.837L239.799 137.219C239.799 135.426 240.105 133.767 240.711 132.249V132.242ZM240.092 148.652C239.384 148.148 239.027 147.242 239.027 145.934C239.027 144.626 239.378 143.331 240.073 142.049C240.769 140.766 241.662 139.816 242.747 139.184C243.831 138.559 244.724 138.482 245.42 138.961C246.115 139.433 246.466 140.332 246.466 141.64C246.466 142.948 246.109 144.269 245.401 145.589C244.692 146.916 243.806 147.88 242.747 148.492C241.687 149.105 240.801 149.162 240.092 148.658V148.652Z" fill="#00AB6C"/>
<path d="M128.098 118.221L98.7496 135.218L110.406 155.034C110.661 155.602 111.057 156.017 111.522 156.285C112.913 157.076 121.15 161.841 121.603 162.103C122.994 162.907 125.01 162.339 125.539 160.534L138.197 124.053L128.098 118.221Z" fill="#046944"/>
<path d="M108.849 141.049L120.505 160.865C121.52 163.149 124.831 162.932 125.539 160.534L138.197 124.053L108.849 141.049Z" fill="#00AB6C"/>
<path d="M161.09 17.0082L161.206 16.9412C161.801 16.6324 162.58 16.4637 163.382 16.4596C164.242 16.4551 165.074 16.6394 165.685 16.9849L165.687 16.9858L174.789 22.0889C174.789 22.089 174.79 22.0891 174.79 22.0893C175.4 22.4343 175.979 23.0501 176.408 23.7853C176.837 24.5207 177.087 25.3292 177.087 26.0304V102.846C177.087 103.548 176.838 104.36 176.411 105.101C175.984 105.842 175.406 106.464 174.798 106.815L175.048 107.248L174.798 106.815L64.1243 170.71C63.5156 171.062 62.6843 171.255 61.8253 171.259C60.9661 171.264 60.1338 171.079 59.5228 170.734L59.5213 170.733L50.4249 165.63C50.4249 165.63 50.4248 165.63 50.4247 165.63C49.8148 165.285 49.2347 164.669 48.806 163.933C48.3771 163.198 48.1268 162.39 48.1268 161.688V84.8731C48.1268 84.1711 48.3761 83.3587 48.8032 82.6179C49.2303 81.8771 49.8082 81.2548 50.416 80.9039L50.166 80.4709L50.416 80.9039L161.09 17.0082Z" fill="#25BA83" stroke="#0C2B34"/>
<path d="M62.3413 169.97V169.762L62.335 169.756V93.148C62.335 92.446 62.5843 91.6336 63.0114 90.8928C63.4385 90.152 64.0164 89.5297 64.6242 89.1789L175.304 25.2895L175.055 24.8567L175.304 25.2895C175.915 24.9369 176.35 24.967 176.6 25.1115C176.85 25.2561 177.094 25.6185 177.094 26.3239V103.139C177.094 103.841 176.844 104.654 176.417 105.394C175.99 106.135 175.412 106.757 174.804 107.108L175.054 107.541L174.804 107.108L64.1306 171.004C63.5198 171.357 63.0848 171.326 62.8349 171.182C62.5847 171.037 62.3413 170.675 62.3413 169.97Z" fill="#00AB6C" stroke="#0C2B34"/>
<path opacity="0.2" d="M64.3742 171.137C63.0216 171.922 60.5526 171.947 59.2766 171.169L50.1787 166.059C48.7687 165.274 47.6203 163.315 47.6203 161.695V84.8731C47.6203 84.031 47.9393 83.0995 48.4306 82.2828L62.5814 90.3599C62.1093 91.1447 61.8286 92.0506 61.8286 92.8609V169.67C61.8286 171.156 62.8749 172.011 64.3678 171.143L64.3742 171.137Z" fill="black"/>
<path d="M92.8864 108.473L91.7763 107.835C90.915 107.337 89.8623 107.337 89.001 107.835L82.2637 111.727V102.507L94.743 95.298C95.9424 94.6026 96.6825 93.3202 96.6825 91.9358V86.768C96.6825 85.3771 95.9424 84.0948 94.7366 83.4057C93.5372 82.7103 92.057 82.7103 90.8512 83.4057L73.5423 93.4032C71.456 94.609 70.1672 96.8356 70.1672 99.2409V147.212C70.1672 148.603 70.9073 149.885 72.1131 150.574C73.3126 151.27 74.7927 151.27 75.9986 150.574L80.3178 148.08C81.5173 147.384 82.2573 146.102 82.2573 144.718V125.903L92.88 119.772C93.7413 119.274 94.2709 118.362 94.2709 117.366V110.878C94.2709 109.889 93.7413 108.97 92.88 108.473H92.8864Z" fill="#E0E0E0"/>
<path opacity="0.1" d="M76.3749 150.351L76.0049 150.568C75.4052 150.919 74.7289 151.091 74.059 151.091C73.3891 151.091 72.7192 150.919 72.1195 150.568C70.9137 149.879 70.1736 148.59 70.1736 147.206V99.2345C70.1736 98.0989 70.4671 97.0143 70.9838 96.0509L74.8693 98.2903C74.3461 99.2537 74.059 100.345 74.059 101.474V148.999C74.059 150.185 75.3478 150.938 76.3749 150.351Z" fill="black"/>
<path d="M82.2637 102.501V116.205L92.8673 110.08C93.4925 109.717 94.2709 110.17 94.2709 110.891V117.366C94.2709 118.355 93.7413 119.268 92.8928 119.759L82.2637 125.897V144.718C82.2637 146.102 81.5236 147.384 80.3242 148.073L76.3941 150.345C75.3542 150.944 74.059 150.198 74.059 148.998V101.48C74.059 99.0686 75.3414 96.842 77.434 95.6425L94.5835 85.7408C95.5213 85.1985 96.6889 85.8748 96.6889 86.9594V91.9549C96.6889 93.333 95.9552 94.609 94.7621 95.298L82.2637 102.514V102.501Z" fill="#FAFAFA"/>
<path d="M119.3 73.5232C118.968 72.3939 118.215 71.4305 117.194 70.8436C116.48 70.4352 115.689 70.2311 114.897 70.2311C114.106 70.2311 113.315 70.4352 112.601 70.8436L108.307 73.3254C107.19 73.9698 106.393 75.0544 106.119 76.3176L93.3202 134.593C93.0969 135.613 93.5627 136.653 94.4623 137.176L95.6362 137.853C96.3763 138.28 97.2886 138.28 98.0287 137.853L103.203 134.867C103.873 134.478 104.441 133.872 104.9 133.049C105.359 132.232 105.678 131.422 105.851 130.624L107.93 119.995L118.394 113.953L119.478 118.272C119.708 118.936 120.033 119.395 120.467 119.651C120.901 119.906 123.919 121.635 124.353 121.896C124.786 122.152 125.361 122.075 126.069 121.667L132.385 118.017L119.3 73.5232ZM110.795 105.315L113.041 93.7541C113.085 93.5564 113.13 93.3522 113.175 93.1417L115.548 102.565L110.795 105.315Z" fill="#E0E0E0"/>
<path opacity="0.1" d="M124.302 121.864C123.734 121.526 120.888 119.899 120.467 119.651C120.033 119.395 119.708 118.936 119.478 118.272L118.394 113.953L121.29 112.282L123.364 120.512C123.587 121.15 123.893 121.596 124.302 121.864Z" fill="black"/>
<path opacity="0.1" d="M119.434 104.811L115.548 102.565L113.175 93.1417C113.175 93.1417 113.175 93.1098 113.175 93.097C113.379 92.1783 113.583 91.132 113.806 89.9708C114.081 88.5226 114.336 86.9786 114.578 85.3262C114.853 86.6532 115.127 87.8782 115.401 88.9947C115.676 90.1112 115.931 91.0682 116.173 91.872L119.427 104.811H119.434Z" fill="black"/>
<path opacity="0.1" d="M97.2758 136.526C97.1227 137.221 97.7799 137.783 98.4051 137.598L98.3923 137.649L98.0287 137.853C97.2886 138.28 96.3763 138.28 95.6362 137.853L94.4623 137.176C93.5627 136.653 93.0969 135.613 93.3202 134.593L106.119 76.3176C106.233 75.7753 106.457 75.2649 106.757 74.8055L110.642 77.0513C110.336 77.5043 110.119 78.0147 110.004 78.557L97.2758 136.526Z" fill="black"/>
<path d="M132.391 118.017L126.069 121.667C125.361 122.075 124.793 122.152 124.359 121.896C123.925 121.641 123.593 121.182 123.37 120.518L121.297 112.282L107.93 119.995L105.857 130.624C105.678 131.422 105.366 132.226 104.906 133.049C104.447 133.872 103.879 134.478 103.203 134.867L98.6284 137.508C97.9394 137.904 97.11 137.298 97.2822 136.519L110.01 78.5506C110.285 77.2874 111.082 76.2028 112.199 75.5584L116.327 73.1787C117.583 72.4514 119.185 73.0957 119.593 74.4866L132.391 118.011V118.017ZM119.44 104.811L116.186 91.8721C115.944 91.0746 115.689 90.1112 115.414 88.9947C115.14 87.8782 114.866 86.6532 114.591 85.3262C114.349 86.9786 114.094 88.5226 113.819 89.9708C113.545 91.4191 113.29 92.6823 113.047 93.7606L109.813 110.368L119.44 104.811Z" fill="#FAFAFA"/>
<path d="M162.633 95.7255C163.724 93.8562 164.7 91.872 165.561 89.7666C166.422 87.6612 167.143 85.492 167.73 83.2718C168.317 81.0515 168.77 78.7802 169.083 76.4579C169.395 74.1356 169.555 71.8133 169.555 69.4846C169.555 65.5992 169.115 62.2241 168.241 59.3595C167.36 56.5013 166.129 54.2938 164.54 52.7371C163.966 52.182 163.36 51.7163 162.703 51.3462C162.065 50.9826 159.506 49.496 158.875 49.1324C157.688 48.437 156.361 48.0478 154.9 47.9648C152.654 47.8372 150.166 48.5646 147.435 50.1404C144.698 51.7163 142.204 53.86 139.958 56.5715C137.706 59.283 135.779 62.339 134.178 65.7395C132.576 69.1401 131.339 72.7767 130.465 76.6493C129.584 80.522 129.15 84.4138 129.15 88.3247C129.15 92.2357 129.584 95.6234 130.465 98.4881C131.339 101.346 132.576 103.56 134.178 105.123C134.752 105.691 135.377 106.157 136.034 106.527C136.666 106.884 139.192 108.352 139.818 108.715C141.017 109.417 142.357 109.806 143.843 109.883C146.089 109.991 148.584 109.258 151.321 107.682C152.482 107.012 153.586 106.246 154.632 105.385L156.214 107.203C156.45 107.439 156.693 107.631 156.942 107.771C157.388 108.033 160.565 109.857 160.808 110.004C161.261 110.272 161.733 110.387 162.231 110.348C162.996 110.291 163.864 109.985 164.827 109.423L171.533 105.557L162.633 95.7255ZM156.648 79.7117C156.195 82.1106 155.551 84.299 154.702 86.2704C153.86 88.2482 152.827 89.9772 151.608 91.4573C150.383 92.9439 148.992 94.1369 147.435 95.0365C145.987 95.8787 144.686 96.2934 143.531 96.2997C142.912 95.3619 142.421 94.1369 142.057 92.6185C141.604 90.7364 141.381 88.4523 141.381 85.7536C141.381 83.0549 141.604 80.5411 142.057 78.1359C142.504 75.737 143.154 73.5486 143.997 71.5772C144.839 69.6058 145.879 67.8641 147.11 66.3648C148.341 64.8591 149.745 63.6533 151.321 62.7409C152.737 61.9243 154.013 61.516 155.155 61.516C155.78 62.4602 156.278 63.6979 156.648 65.2291C157.095 67.1112 157.324 69.3889 157.324 72.0621C157.324 74.7353 157.095 77.3065 156.648 79.7117Z" fill="#E0E0E0"/>
<path opacity="0.1" d="M139.658 108.62C138.848 108.154 136.621 106.859 136.034 106.527C135.377 106.157 134.752 105.691 134.178 105.123C132.576 103.56 131.339 101.346 130.465 98.4881C129.584 95.6235 129.15 92.2357 129.15 88.3248C129.15 84.4138 129.584 80.522 130.465 76.6494C131.275 73.0638 132.398 69.6824 133.833 66.4988L137.719 68.7445C136.283 71.9218 135.16 75.3032 134.35 78.8951C133.47 82.7678 133.036 86.6596 133.036 90.5705C133.036 94.4815 133.47 97.8692 134.35 100.727C135.224 103.592 136.462 105.806 138.063 107.369C138.561 107.854 139.097 108.275 139.658 108.62Z" fill="black"/>
<path opacity="0.1" d="M158.588 63.1493C157.745 62.154 156.712 61.6117 155.493 61.5224C155.385 61.516 155.27 61.5224 155.155 61.5224C155.78 62.4666 156.278 63.7043 156.648 65.2291C157.095 67.1112 157.324 69.3889 157.324 72.0621C157.324 74.7353 157.095 77.3065 156.648 79.7118C156.195 82.1106 155.551 84.299 154.702 86.2704C153.86 88.2482 152.826 89.9772 151.608 91.4573C150.383 92.9439 148.992 94.1369 147.435 95.0365C145.987 95.8787 144.686 96.2934 143.531 96.2998C143.671 96.5294 143.831 96.74 143.997 96.9378C144.839 97.9394 145.879 98.4753 147.11 98.5391C148.341 98.6093 149.745 98.1946 151.321 97.2823C152.878 96.3827 154.268 95.1896 155.493 93.7031C156.712 92.2165 157.745 90.4876 158.588 88.5162C159.436 86.5447 160.081 84.3564 160.534 81.9511C160.98 79.5522 161.21 77.0002 161.21 74.3015C161.21 71.6028 160.98 69.3506 160.534 67.4685C160.081 65.5864 159.436 64.1445 158.588 63.1493Z" fill="black"/>
<path opacity="0.1" d="M155.736 104.428C155.372 104.76 155.008 105.079 154.632 105.385L156.214 107.203C156.45 107.439 156.693 107.631 156.942 107.771C157.375 108.026 160.368 109.742 160.776 109.985C160.546 109.844 160.317 109.666 160.1 109.443L155.736 104.428Z" fill="black"/>
<path d="M171.533 105.557L164.827 109.43C163.864 109.985 162.996 110.291 162.237 110.349C161.471 110.406 160.763 110.106 160.1 109.443L155.736 104.421C154.37 105.678 152.897 106.763 151.321 107.675C148.584 109.251 146.096 109.985 143.843 109.876C141.591 109.768 139.665 108.926 138.07 107.363C136.468 105.8 135.23 103.586 134.356 100.721C133.482 97.8629 133.042 94.4751 133.042 90.5641C133.042 86.6532 133.482 82.7614 134.356 78.8887C135.23 75.0161 136.468 71.3795 138.07 67.9789C139.671 64.5784 141.598 61.5224 143.843 58.8109C146.096 56.0994 148.59 53.9557 151.321 52.3735C154.051 50.7976 156.54 50.0703 158.785 50.1979C161.031 50.3255 162.945 51.1676 164.54 52.7244C166.129 54.2811 167.367 56.4886 168.241 59.3532C169.115 62.2178 169.555 65.5864 169.555 69.4782C169.555 71.8069 169.395 74.1293 169.083 76.4516C168.77 78.7739 168.317 81.0452 167.73 83.2654C167.143 85.4857 166.422 87.6485 165.561 89.7539C164.7 91.8593 163.724 93.8498 162.633 95.7192L171.533 105.544V105.557ZM141.381 85.7536C141.381 88.4524 141.604 90.7428 142.057 92.6249C142.51 94.507 143.154 95.9489 143.997 96.9441C144.839 97.9458 145.879 98.4753 147.11 98.5455C148.341 98.6157 149.745 98.1946 151.321 97.2823C152.878 96.3827 154.268 95.1896 155.493 93.7031C156.712 92.2166 157.752 90.4876 158.594 88.5162C159.436 86.5447 160.087 84.3564 160.534 81.9511C160.987 79.5523 161.21 77.0003 161.21 74.3015C161.21 71.6028 160.987 69.3506 160.534 67.4685C160.081 65.5864 159.436 64.1446 158.594 63.1493C157.752 62.154 156.718 61.6117 155.493 61.5224C154.268 61.4331 152.878 61.8414 151.321 62.741C149.745 63.6533 148.341 64.8591 147.11 66.3584C145.879 67.8641 144.845 69.5995 143.997 71.5709C143.154 73.5423 142.504 75.7306 142.057 78.1359C141.604 80.5348 141.381 83.074 141.381 85.7472V85.7536Z" fill="#FAFAFA"/>
</svg>
