<svg width="30" height="30" viewBox="0 0 30 30" fill="none" xmlns="http://www.w3.org/2000/svg">
<path d="M22 1H8C4.13401 1 1 4.13401 1 8V22C1 25.866 4.13401 29 8 29H22C25.866 29 29 25.866 29 22V8C29 4.13401 25.866 1 22 1Z" stroke="white" stroke-width="2" stroke-linecap="round" stroke-linejoin="round"/>
<path d="M15 20.25C17.8995 20.25 20.25 17.8995 20.25 15C20.25 12.1005 17.8995 9.75 15 9.75C12.1005 9.75 9.75 12.1005 9.75 15C9.75 17.8995 12.1005 20.25 15 20.25Z" stroke="white" stroke-width="2" stroke-linecap="round" stroke-linejoin="round"/>
<path d="M22.875 7.125V7.126" stroke="white" stroke-width="2" stroke-linecap="round" stroke-linejoin="round"/>
</svg>
